<svg width="700" height="260" viewBox="0 0 700 260" xmlns="http://www.w3.org/2000/svg">
<defs>

  <linearGradient id="tBg" x1="0%" y1="0%" x2="100%" y2="100%">
    <stop offset="0%" stop-color="#120826"/><stop offset="100%" stop-color="#1d0f3a"/>
  </linearGradient>
  <linearGradient id="tCup" x1="0%" y1="0%" x2="100%" y2="100%">
    <stop offset="0%" stop-color="#ff2ecb"/><stop offset="100%" stop-color="#8b2fd6"/>
  </linearGradient>
  <linearGradient id="tShine" x1="0%" y1="0%" x2="100%" y2="100%">
    <stop offset="0%" stop-color="#ffffff" stop-opacity="0"/>
    <stop offset="45%" stop-color="#ffffff" stop-opacity="0"/>
    <stop offset="50%" stop-color="#ffffff" stop-opacity="0.45"/>
    <stop offset="55%" stop-color="#ffffff" stop-opacity="0"/>
    <stop offset="100%" stop-color="#ffffff" stop-opacity="0"/>
  </linearGradient>
  <radialGradient id="tGlow" cx="50%" cy="50%" r="55%">
    <stop offset="0%" stop-color="#8b2fd6" stop-opacity="0.35"/>
    <stop offset="100%" stop-color="#8b2fd6" stop-opacity="0"/>
  </radialGradient>
  <filter id="tSoft" x="-80%" y="-80%" width="260%" height="260%">
    <feGaussianBlur stdDeviation="4" result="b"/><feMerge><feMergeNode in="b"/><feMergeNode in="SourceGraphic"/></feMerge>
  </filter>
  <clipPath id="tOuterClip"><rect x="0" y="0" width="700" height="260" rx="18"/></clipPath>

<clipPath id="tCardClip0"><rect x="8.0" y="40" width="104" height="190" rx="14"/></clipPath>
<clipPath id="tCardClip1"><rect x="124.0" y="40" width="104" height="190" rx="14"/></clipPath>
<clipPath id="tCardClip2"><rect x="240.0" y="40" width="104" height="190" rx="14"/></clipPath>
<clipPath id="tCardClip3"><rect x="356.0" y="40" width="104" height="190" rx="14"/></clipPath>
<clipPath id="tCardClip4"><rect x="472.0" y="40" width="104" height="190" rx="14"/></clipPath>
<clipPath id="tCardClip5"><rect x="588.0" y="40" width="104" height="190" rx="14"/></clipPath>
</defs>
<g clip-path="url(#tOuterClip)">
<rect x="0" y="0" width="700" height="260" fill="url(#tBg)"/>
<text x="20" y="26" font-family="-apple-system,'Segoe UI',Roboto,Helvetica,Arial,sans-serif" font-size="14" font-weight="700" letter-spacing="2" fill="#7a5fa0">TROPHY CASE</text>
<g transform="translate(60.0,135.0)">
<g transform="scale(0)" opacity="0">
<animateTransform attributeName="transform" type="scale" from="0" to="1" begin="0.25s" dur="0.55s" fill="freeze" calcMode="spline" keySplines="0.34 1.3 0.4 1"/>
<animate attributeName="opacity" from="0" to="1" begin="0.25s" dur="0.4s" fill="freeze"/>
<g transform="translate(-60.0,-135.0)">
<rect x="8.0" y="40" width="104" height="190" rx="14" fill="rgba(255,255,255,0.035)" stroke="rgba(255,140,235,0.28)" stroke-width="1.1"/>
<g clip-path="url(#tCardClip0)">
<circle cx="60.0" cy="110" r="52" fill="url(#tGlow)">
<animate attributeName="r" values="46;56;46" dur="2.6s" repeatCount="indefinite"/>
</circle>
<g filter="url(#tSoft)">
    <path d="M 28.5 97.6
             Q 28.5 122.8 60.0 122.8
             Q 91.5 122.8 91.5 97.6
             L 91.5 74.5 L 28.5 74.5 Z" fill="url(#tCup)"/>
    <path d="M 28.5 80.8 Q 11.7 80.8 11.7 95.5 Q 11.7 108.1 28.5 106"
          fill="none" stroke="url(#tCup)" stroke-width="3.57"/>
    <path d="M 91.5 80.8 Q 108.3 80.8 108.3 95.5 Q 108.3 108.1 91.5 106"
          fill="none" stroke="url(#tCup)" stroke-width="3.57"/>
    <rect x="53.7" y="122.8" width="12.600000000000001" height="14.700000000000001" fill="url(#tCup)"/>
    <path d="M 36.9 137.5 L 83.1 137.5 L 76.8 148.0 L 43.2 148.0 Z" fill="url(#tCup)"/>
    </g>
<text x="60.0" y="168" font-family="-apple-system,'Segoe UI',Roboto,Helvetica,Arial,sans-serif" font-size="16" font-weight="800" fill="#f4ecff" text-anchor="middle">S+</text>
<text x="60.0" y="188" font-family="SFMono-Regular,Consolas,'Liberation Mono',Menlo,monospace" font-size="10" fill="#7a5fa0" text-anchor="middle" letter-spacing="0.5">Stars</text>
<g transform="rotate(20 60.0 135.0)">
<rect x="-132.0" y="0" width="46" height="310" fill="url(#tShine)">
<animate attributeName="x" from="-132.0" to="252.0" begin="1.20s" dur="3.2s" repeatCount="indefinite"/>
</rect></g>
</g>
</g>
</g>
</g>
<g transform="translate(176.0,135.0)">
<g transform="scale(0)" opacity="0">
<animateTransform attributeName="transform" type="scale" from="0" to="1" begin="0.39s" dur="0.55s" fill="freeze" calcMode="spline" keySplines="0.34 1.3 0.4 1"/>
<animate attributeName="opacity" from="0" to="1" begin="0.39s" dur="0.4s" fill="freeze"/>
<g transform="translate(-176.0,-135.0)">
<rect x="124.0" y="40" width="104" height="190" rx="14" fill="rgba(255,255,255,0.035)" stroke="rgba(255,140,235,0.28)" stroke-width="1.1"/>
<g clip-path="url(#tCardClip1)">
<circle cx="176.0" cy="110" r="52" fill="url(#tGlow)">
<animate attributeName="r" values="46;56;46" dur="2.8s" repeatCount="indefinite"/>
</circle>
<g filter="url(#tSoft)">
    <path d="M 144.5 97.6
             Q 144.5 122.8 176.0 122.8
             Q 207.5 122.8 207.5 97.6
             L 207.5 74.5 L 144.5 74.5 Z" fill="url(#tCup)"/>
    <path d="M 144.5 80.8 Q 127.7 80.8 127.7 95.5 Q 127.7 108.1 144.5 106"
          fill="none" stroke="url(#tCup)" stroke-width="3.57"/>
    <path d="M 207.5 80.8 Q 224.3 80.8 224.3 95.5 Q 224.3 108.1 207.5 106"
          fill="none" stroke="url(#tCup)" stroke-width="3.57"/>
    <rect x="169.7" y="122.8" width="12.600000000000001" height="14.700000000000001" fill="url(#tCup)"/>
    <path d="M 152.9 137.5 L 199.1 137.5 L 192.8 148.0 L 159.2 148.0 Z" fill="url(#tCup)"/>
    </g>
<text x="176.0" y="168" font-family="-apple-system,'Segoe UI',Roboto,Helvetica,Arial,sans-serif" font-size="16" font-weight="800" fill="#f4ecff" text-anchor="middle">SSS</text>
<text x="176.0" y="188" font-family="SFMono-Regular,Consolas,'Liberation Mono',Menlo,monospace" font-size="10" fill="#7a5fa0" text-anchor="middle" letter-spacing="0.5">Commits</text>
<g transform="rotate(20 176.0 135.0)">
<rect x="-16.0" y="0" width="46" height="310" fill="url(#tShine)">
<animate attributeName="x" from="-16.0" to="368.0" begin="1.50s" dur="3.2s" repeatCount="indefinite"/>
</rect></g>
</g>
</g>
</g>
</g>
<g transform="translate(292.0,135.0)">
<g transform="scale(0)" opacity="0">
<animateTransform attributeName="transform" type="scale" from="0" to="1" begin="0.53s" dur="0.55s" fill="freeze" calcMode="spline" keySplines="0.34 1.3 0.4 1"/>
<animate attributeName="opacity" from="0" to="1" begin="0.53s" dur="0.4s" fill="freeze"/>
<g transform="translate(-292.0,-135.0)">
<rect x="240.0" y="40" width="104" height="190" rx="14" fill="rgba(255,255,255,0.035)" stroke="rgba(255,140,235,0.28)" stroke-width="1.1"/>
<g clip-path="url(#tCardClip2)">
<circle cx="292.0" cy="110" r="52" fill="url(#tGlow)">
<animate attributeName="r" values="46;56;46" dur="3.0s" repeatCount="indefinite"/>
</circle>
<g filter="url(#tSoft)">
    <path d="M 260.5 97.6
             Q 260.5 122.8 292.0 122.8
             Q 323.5 122.8 323.5 97.6
             L 323.5 74.5 L 260.5 74.5 Z" fill="url(#tCup)"/>
    <path d="M 260.5 80.8 Q 243.7 80.8 243.7 95.5 Q 243.7 108.1 260.5 106"
          fill="none" stroke="url(#tCup)" stroke-width="3.57"/>
    <path d="M 323.5 80.8 Q 340.3 80.8 340.3 95.5 Q 340.3 108.1 323.5 106"
          fill="none" stroke="url(#tCup)" stroke-width="3.57"/>
    <rect x="285.7" y="122.8" width="12.600000000000001" height="14.700000000000001" fill="url(#tCup)"/>
    <path d="M 268.9 137.5 L 315.1 137.5 L 308.8 148.0 L 275.2 148.0 Z" fill="url(#tCup)"/>
    </g>
<text x="292.0" y="168" font-family="-apple-system,'Segoe UI',Roboto,Helvetica,Arial,sans-serif" font-size="16" font-weight="800" fill="#f4ecff" text-anchor="middle">A+</text>
<text x="292.0" y="188" font-family="SFMono-Regular,Consolas,'Liberation Mono',Menlo,monospace" font-size="10" fill="#7a5fa0" text-anchor="middle" letter-spacing="0.5">Followers</text>
<g transform="rotate(20 292.0 135.0)">
<rect x="100.0" y="0" width="46" height="310" fill="url(#tShine)">
<animate attributeName="x" from="100.0" to="484.0" begin="1.80s" dur="3.2s" repeatCount="indefinite"/>
</rect></g>
</g>
</g>
</g>
</g>
<g transform="translate(408.0,135.0)">
<g transform="scale(0)" opacity="0">
<animateTransform attributeName="transform" type="scale" from="0" to="1" begin="0.67s" dur="0.55s" fill="freeze" calcMode="spline" keySplines="0.34 1.3 0.4 1"/>
<animate attributeName="opacity" from="0" to="1" begin="0.67s" dur="0.4s" fill="freeze"/>
<g transform="translate(-408.0,-135.0)">
<rect x="356.0" y="40" width="104" height="190" rx="14" fill="rgba(255,255,255,0.035)" stroke="rgba(255,140,235,0.28)" stroke-width="1.1"/>
<g clip-path="url(#tCardClip3)">
<circle cx="408.0" cy="110" r="52" fill="url(#tGlow)">
<animate attributeName="r" values="46;56;46" dur="3.2s" repeatCount="indefinite"/>
</circle>
<g filter="url(#tSoft)">
    <path d="M 376.5 97.6
             Q 376.5 122.8 408.0 122.8
             Q 439.5 122.8 439.5 97.6
             L 439.5 74.5 L 376.5 74.5 Z" fill="url(#tCup)"/>
    <path d="M 376.5 80.8 Q 359.7 80.8 359.7 95.5 Q 359.7 108.1 376.5 106"
          fill="none" stroke="url(#tCup)" stroke-width="3.57"/>
    <path d="M 439.5 80.8 Q 456.3 80.8 456.3 95.5 Q 456.3 108.1 439.5 106"
          fill="none" stroke="url(#tCup)" stroke-width="3.57"/>
    <rect x="401.7" y="122.8" width="12.600000000000001" height="14.700000000000001" fill="url(#tCup)"/>
    <path d="M 384.9 137.5 L 431.1 137.5 L 424.8 148.0 L 391.2 148.0 Z" fill="url(#tCup)"/>
    </g>
<text x="408.0" y="168" font-family="-apple-system,'Segoe UI',Roboto,Helvetica,Arial,sans-serif" font-size="16" font-weight="800" fill="#f4ecff" text-anchor="middle">S</text>
<text x="408.0" y="188" font-family="SFMono-Regular,Consolas,'Liberation Mono',Menlo,monospace" font-size="10" fill="#7a5fa0" text-anchor="middle" letter-spacing="0.5">Pull Requests</text>
<g transform="rotate(20 408.0 135.0)">
<rect x="216.0" y="0" width="46" height="310" fill="url(#tShine)">
<animate attributeName="x" from="216.0" to="600.0" begin="2.10s" dur="3.2s" repeatCount="indefinite"/>
</rect></g>
</g>
</g>
</g>
</g>
<g transform="translate(524.0,135.0)">
<g transform="scale(0)" opacity="0">
<animateTransform attributeName="transform" type="scale" from="0" to="1" begin="0.81s" dur="0.55s" fill="freeze" calcMode="spline" keySplines="0.34 1.3 0.4 1"/>
<animate attributeName="opacity" from="0" to="1" begin="0.81s" dur="0.4s" fill="freeze"/>
<g transform="translate(-524.0,-135.0)">
<rect x="472.0" y="40" width="104" height="190" rx="14" fill="rgba(255,255,255,0.035)" stroke="rgba(255,140,235,0.28)" stroke-width="1.1"/>
<g clip-path="url(#tCardClip4)">
<circle cx="524.0" cy="110" r="52" fill="url(#tGlow)">
<animate attributeName="r" values="46;56;46" dur="3.4s" repeatCount="indefinite"/>
</circle>
<g filter="url(#tSoft)">
    <path d="M 492.5 97.6
             Q 492.5 122.8 524.0 122.8
             Q 555.5 122.8 555.5 97.6
             L 555.5 74.5 L 492.5 74.5 Z" fill="url(#tCup)"/>
    <path d="M 492.5 80.8 Q 475.7 80.8 475.7 95.5 Q 475.7 108.1 492.5 106"
          fill="none" stroke="url(#tCup)" stroke-width="3.57"/>
    <path d="M 555.5 80.8 Q 572.3 80.8 572.3 95.5 Q 572.3 108.1 555.5 106"
          fill="none" stroke="url(#tCup)" stroke-width="3.57"/>
    <rect x="517.7" y="122.8" width="12.600000000000001" height="14.700000000000001" fill="url(#tCup)"/>
    <path d="M 500.9 137.5 L 547.1 137.5 L 540.8 148.0 L 507.2 148.0 Z" fill="url(#tCup)"/>
    </g>
<text x="524.0" y="168" font-family="-apple-system,'Segoe UI',Roboto,Helvetica,Arial,sans-serif" font-size="16" font-weight="800" fill="#f4ecff" text-anchor="middle">A</text>
<text x="524.0" y="188" font-family="SFMono-Regular,Consolas,'Liberation Mono',Menlo,monospace" font-size="10" fill="#7a5fa0" text-anchor="middle" letter-spacing="0.5">Issues</text>
<g transform="rotate(20 524.0 135.0)">
<rect x="332.0" y="0" width="46" height="310" fill="url(#tShine)">
<animate attributeName="x" from="332.0" to="716.0" begin="2.40s" dur="3.2s" repeatCount="indefinite"/>
</rect></g>
</g>
</g>
</g>
</g>
<g transform="translate(640.0,135.0)">
<g transform="scale(0)" opacity="0">
<animateTransform attributeName="transform" type="scale" from="0" to="1" begin="0.95s" dur="0.55s" fill="freeze" calcMode="spline" keySplines="0.34 1.3 0.4 1"/>
<animate attributeName="opacity" from="0" to="1" begin="0.95s" dur="0.4s" fill="freeze"/>
<g transform="translate(-640.0,-135.0)">
<rect x="588.0" y="40" width="104" height="190" rx="14" fill="rgba(255,255,255,0.035)" stroke="rgba(255,140,235,0.28)" stroke-width="1.1"/>
<g clip-path="url(#tCardClip5)">
<circle cx="640.0" cy="110" r="52" fill="url(#tGlow)">
<animate attributeName="r" values="46;56;46" dur="3.6s" repeatCount="indefinite"/>
</circle>
<g filter="url(#tSoft)">
    <path d="M 608.5 97.6
             Q 608.5 122.8 640.0 122.8
             Q 671.5 122.8 671.5 97.6
             L 671.5 74.5 L 608.5 74.5 Z" fill="url(#tCup)"/>
    <path d="M 608.5 80.8 Q 591.7 80.8 591.7 95.5 Q 591.7 108.1 608.5 106"
          fill="none" stroke="url(#tCup)" stroke-width="3.57"/>
    <path d="M 671.5 80.8 Q 688.3 80.8 688.3 95.5 Q 688.3 108.1 671.5 106"
          fill="none" stroke="url(#tCup)" stroke-width="3.57"/>
    <rect x="633.7" y="122.8" width="12.600000000000001" height="14.700000000000001" fill="url(#tCup)"/>
    <path d="M 616.9 137.5 L 663.1 137.5 L 656.8 148.0 L 623.2 148.0 Z" fill="url(#tCup)"/>
    </g>
<text x="640.0" y="168" font-family="-apple-system,'Segoe UI',Roboto,Helvetica,Arial,sans-serif" font-size="16" font-weight="800" fill="#f4ecff" text-anchor="middle">B+</text>
<text x="640.0" y="188" font-family="SFMono-Regular,Consolas,'Liberation Mono',Menlo,monospace" font-size="10" fill="#7a5fa0" text-anchor="middle" letter-spacing="0.5">Repositories</text>
<g transform="rotate(20 640.0 135.0)">
<rect x="448.0" y="0" width="46" height="310" fill="url(#tShine)">
<animate attributeName="x" from="448.0" to="832.0" begin="2.70s" dur="3.2s" repeatCount="indefinite"/>
</rect></g>
</g>
</g>
</g>
</g>
</g>
<rect x="1" y="1" width="698" height="258" rx="18" fill="none" stroke="rgba(255,140,235,0.28)" stroke-width="1.2"/>
</svg>